<?xml version="1.0" encoding="utf-8"?>
<!-- Generator: Adobe Illustrator 21.0.2, SVG Export Plug-In . SVG Version: 6.00 Build 0)  -->
<svg version="1.1" id="Laag_1" xmlns="http://www.w3.org/2000/svg" xmlns:xlink="http://www.w3.org/1999/xlink" x="0px" y="0px"
	 viewBox="0 0 104.1 104.1" style="enable-background:new 0 0 104.1 104.1;" xml:space="preserve">
<style type="text/css">
	.st0{fill:#FFFFFF;}
</style>
<g>
	<g id="_x39_GCcDv.tif">
		<g>
			<path d="M52.8,42.6c5.4,0,9.9,4.5,9.9,9.9c0,5.4-4.5,9.9-9.9,9.9c-5.4,0-9.9-4.5-9.9-9.9C42.8,47.1,47.3,42.6,52.8,42.6z
				 M60.4,52.5c0-4.2-3.4-7.6-7.6-7.6c-4.3,0-7.7,3.4-7.7,7.6c0,4.3,3.4,7.7,7.7,7.7C57.1,60.2,60.4,56.8,60.4,52.5z"/>
			<path class="st0" d="M60.4,52.5c0,4.3-3.4,7.7-7.6,7.7c-4.3,0-7.7-3.4-7.7-7.7c0-4.2,3.4-7.6,7.7-7.6
				C57,44.9,60.4,48.3,60.4,52.5z"/>
		</g>
	</g>
	<path d="M61.1,33.2c0.6,0.5,0.6,1.1,0.3,1.8c-0.8,1.7-1.5,3.4-2.2,5.1C59,40.7,58.6,41,58,41c-0.5,0-1-0.3-1.1-0.9
		c-0.1-0.3,0-0.7,0.1-1c0.7-1.7,1.5-3.5,2.2-5.2c0.3-0.6,0.8-0.9,1.4-0.9C60.8,33.1,61,33.2,61.1,33.2z"/>
	<path d="M49,40.1c-0.5,0.8-1.5,1-2.1,0.3c-0.1-0.2-0.2-0.3-0.3-0.5c-0.7-1.7-1.4-3.5-2.1-5.2c-0.4-1,0.1-1.8,1.1-1.8
		c0.6,0,0.9,0.3,1.1,0.8c0.7,1.8,1.5,3.6,2.2,5.5C49.1,39.4,49,39.8,49,40.1z"/>
	<path d="M64.7,48.3c-0.9-0.5-1-1.5-0.2-2.1c0.2-0.1,0.3-0.2,0.5-0.3c1.7-0.7,3.4-1.4,5.2-2c1-0.4,1.8,0.1,1.8,1
		c0,0.6-0.3,1-0.8,1.2c-1.8,0.7-3.6,1.4-5.4,2.1C65.3,48.3,65,48.2,64.7,48.3z"/>
	<path d="M40.8,55.7c0.9,0.5,1,1.6,0.2,2.1C41,57.9,40.8,58,40.7,58c-1.8,0.7-3.5,1.4-5.3,2.1c-1,0.4-1.8-0.2-1.8-1.1
		c0-0.6,0.4-0.9,0.9-1.1c1.8-0.7,3.6-1.4,5.4-2.1C40.1,55.7,40.5,55.7,40.8,55.7z"/>
	<path d="M38.3,44.4c0.8,0.4,1.7,0.7,2.5,1.1c0.8,0.3,1.1,1,0.8,1.6c-0.3,0.6-1,0.9-1.8,0.5c-1.7-0.7-3.5-1.5-5.2-2.3
		c-0.7-0.3-1.1-1-0.8-1.7c0.3-0.6,1-0.8,1.7-0.5C36.5,43.6,37.4,44,38.3,44.4z"/>
	<path d="M44.4,70.9c-0.6-0.5-0.6-1.1-0.3-1.8c0.8-1.7,1.5-3.4,2.2-5.1c0.2-0.5,0.6-0.9,1.2-0.8c0.5,0,1,0.3,1.1,0.9
		c0.1,0.3,0,0.7-0.1,1c-0.7,1.7-1.5,3.5-2.2,5.2c-0.3,0.6-0.8,0.9-1.4,0.9C44.7,71,44.5,70.9,44.4,70.9z"/>
	<path d="M56.5,64c0.5-0.8,1.5-1,2.1-0.3c0.1,0.2,0.2,0.3,0.3,0.5c0.7,1.7,1.4,3.5,2.1,5.2c0.4,1-0.1,1.8-1.1,1.8
		c-0.6,0-0.9-0.3-1.1-0.8c-0.7-1.8-1.5-3.6-2.2-5.5C56.4,64.7,56.5,64.3,56.5,64z"/>
	<path d="M67.2,59.7c-0.8-0.4-1.7-0.7-2.5-1.1c-0.8-0.3-1.1-1-0.8-1.6c0.3-0.6,1-0.9,1.8-0.5c1.7,0.7,3.5,1.5,5.2,2.3
		c0.7,0.3,1.1,1,0.8,1.7c-0.3,0.6-1,0.8-1.7,0.5C69,60.5,68.1,60.1,67.2,59.7z"/>
</g>
</svg>
