<?xml version="1.0" encoding="utf-8"?>
<!-- Generator: Adobe Illustrator 21.0.2, SVG Export Plug-In . SVG Version: 6.00 Build 0)  -->
<svg version="1.1" id="Laag_1" xmlns="http://www.w3.org/2000/svg" xmlns:xlink="http://www.w3.org/1999/xlink" x="0px" y="0px"
	 viewBox="0 0 104.1 104.1" style="enable-background:new 0 0 104.1 104.1;" xml:space="preserve">
<g id="y7HFXm_1_">
	<g>
		<path d="M65.7,67.4c-2-0.7-3.4-1.9-3.6-4.3c1.1-0.3,1.9-0.5,2.6,0.9c0.3,0.6,1.6,1,2.5,1c1.1,0,1.6-1,1.6-2.1
			c0-1.1-0.5-1.9-1.6-2.2c-0.5-0.2-1.1-0.1-1.7-0.1c-9.6,0-19.2,0-28.8,0c-0.6,0-1.1,0-1.7,0c0-0.7,0-1.4,0-2.2c0.5,0,1.1,0,1.6,0
			c9.6,0,19.2,0,28.8,0c3.2,0,5,1.1,5.5,3.5c0.6,2.3-0.6,4.1-3.4,5.6C66.9,67.4,66.3,67.4,65.7,67.4z"/>
		<path d="M21.5,56.1c0-0.8,0-1.4,0-2.2c0.7,0,1.3,0,2,0c16.3,0,32.5,0,48.8,0c1,0,2,0,2.9-0.3c3.3-0.9,5.2-4,4.8-7.7
			c-0.4-3.1-3.2-5.5-6.3-5.6c-3.6-0.1-6.5,2.1-7,5.5c-0.2,1.8-1.2,1.2-2.2,1.2c-0.4-4.3,3.5-8.5,7.9-8.8c5-0.3,9.3,3,9.8,7.7
			c0.6,5.3-2.7,9.4-8,10.2c-0.6,0.1-1.1,0.1-1.7,0.1c-16.6,0-33.3,0-49.9,0C22.3,56.1,22,56.1,21.5,56.1z"/>
		<path d="M28.2,51.5c0-0.8,0-1.4,0-2.2c0.6,0,1.2,0,1.7,0c8.4,0,16.8,0,25.2,0c2.2,0,3.9-1.2,4.5-3.3c0.6-1.8-0.2-3.9-1.9-5
			c-2.9-1.9-6.3-0.2-7,3.6c-0.6,0-1.3,0-2.1,0c0-2.5,1.1-4.4,3.2-5.6c2.5-1.4,5.1-1.3,7.5,0.3c2.3,1.6,3.3,4.5,2.5,7.3
			c-0.8,2.8-3,4.9-5.7,4.9C46.8,51.6,37.6,51.5,28.2,51.5z"/>
	</g>
</g>
</svg>
