<?xml version="1.0" encoding="utf-8"?>
<!-- Generator: Adobe Illustrator 21.0.2, SVG Export Plug-In . SVG Version: 6.00 Build 0)  -->
<svg version="1.1" id="Laag_1" xmlns="http://www.w3.org/2000/svg" xmlns:xlink="http://www.w3.org/1999/xlink" x="0px" y="0px"
	 viewBox="0 0 104.1 104.1" style="enable-background:new 0 0 104.1 104.1;" xml:space="preserve">
<style type="text/css">
	.st0{fill:#FFFFFF;}
</style>
<g>
	<g id="yfTnE6.tif_5_">
		<g>
			<path class="st0" d="M40.2,30.8c-0.2-0.1-0.3-0.2-0.4-0.3c-6.4-4.4-14.8-0.4-15.6,7.3c0,0.3-0.3,0.6-0.6,0.7
				c-6.7,2.9-10.2,9.2-9.1,16.4c1.1,6.8,7.4,12.2,14.3,12.2c13.7,0,27.4,0,41.1,0c3,0,6.1,0.2,9.1-0.1c6.5-0.6,11.7-6.1,12.2-12.4
				c0.5-7.3-4.4-13.2-10.6-14.6c-0.5-0.1-1-0.2-1.4-0.3c0.1-10.7-7.1-18-15-20.2C56.1,17.2,45.1,20.3,40.2,30.8z"/>
			<path d="M40.2,30.8c4.9-10.4,15.9-13.5,24-11.3c7.9,2.2,15,9.5,15,20.2c0.5,0.1,0.9,0.2,1.4,0.3c6.2,1.4,11.1,7.3,10.6,14.6
				C90.7,60.9,85.5,66.5,79,67c-3,0.3-6.1,0.1-9.1,0.1c-13.7,0-27.4,0-41.1,0c-6.9,0-13.3-5.4-14.3-12.2c-1.1-7.2,2.4-13.5,9.1-16.4
				c0.3-0.1,0.5-0.5,0.6-0.7c0.8-7.7,9.2-11.7,15.6-7.3C39.9,30.6,40,30.6,40.2,30.8z M76.8,41.7c0-1.5,0.1-2.9,0-4.3
				C75.8,25.8,64,18.2,53,22c-5.1,1.8-8.7,5.2-10.9,10.1c-0.3,0.7-0.7,1.5-1,2.3c-0.9-0.7-1.6-1.3-2.4-1.9c-2.4-1.8-5.1-2.1-7.8-0.9
				c-2.7,1.2-4.3,3.5-4.4,6.4c0,1.5-0.6,2.1-1.9,2.6c-5.7,2.1-9,8.1-7.8,14.2c1.1,5.8,6.3,10.2,12.3,10.2c15,0,30,0,45.1,0
				c1.7,0,3.5,0.1,5.2-0.2c5.3-0.7,9.5-5.4,9.7-10.7c0.2-5.7-3.4-10.6-8.8-11.9C79.1,42,78,41.8,76.8,41.7z"/>
			<path class="st0" d="M76.8,41.7c1.2,0.2,2.3,0.3,3.4,0.5c5.4,1.3,9,6.1,8.8,11.9c-0.2,5.3-4.4,9.9-9.7,10.7
				c-1.7,0.2-3.5,0.2-5.2,0.2c-15,0-30,0-45.1,0c-6,0-11.2-4.4-12.3-10.2c-1.1-6,2.1-12.1,7.8-14.2c1.3-0.5,1.9-1,1.9-2.6
				c0.1-3,1.7-5.2,4.4-6.4c2.7-1.2,5.4-0.9,7.8,0.9c0.8,0.6,1.5,1.2,2.4,1.9c0.4-0.8,0.7-1.6,1-2.3c2.2-4.9,5.8-8.3,10.9-10.1
				c11-3.8,22.8,3.8,23.8,15.4C77,38.8,76.8,40.2,76.8,41.7z"/>
		</g>
	</g>
	<path d="M71.8,75.7c0.6,0.9,1.3,1.9,1.8,2.9c0.4,0.7,0.2,1.5-0.4,1.9c-0.5,0.3-1.3,0.5-1.9,0.3c-0.8-0.2-1.2-1-1-1.8
		c0.3-1.1,0.8-2.2,1.2-3.3C71.6,75.7,71.7,75.7,71.8,75.7z"/>
	<path d="M60.8,80.8c0.6,0.9,1.3,1.9,1.8,2.9c0.4,0.7,0.2,1.5-0.4,1.9c-0.5,0.3-1.3,0.5-1.9,0.3c-0.8-0.2-1.2-1-1-1.8
		c0.3-1.1,0.8-2.2,1.2-3.3C60.6,80.8,60.7,80.8,60.8,80.8z"/>
	<path d="M35.9,74.3c0.4,1.4,0.8,2.5,1,3.6c0.2,0.8-0.2,1.6-1,1.8c-0.6,0.1-1.4,0-1.9-0.4c-0.7-0.4-0.8-1.3-0.3-2
		C34.3,76.3,35,75.5,35.9,74.3z"/>
	<path d="M44.4,68.9c0.6,1.3,1.1,2.3,1.5,3.4c0.3,0.8,0,1.6-0.8,1.9c-0.6,0.2-1.4,0.2-2-0.1c-0.7-0.3-1-1.2-0.6-1.9
		C43.1,71.2,43.7,70.2,44.4,68.9z"/>
	<path d="M47.4,79.4c0.6,1.3,1.1,2.3,1.5,3.4c0.3,0.8,0,1.6-0.8,1.9c-0.6,0.2-1.4,0.2-2-0.1c-0.7-0.3-1-1.2-0.6-1.9
		C46.1,81.7,46.7,80.7,47.4,79.4z"/>
	<path d="M63.8,70.4c0.6,1,1.2,1.9,1.8,2.9c0.4,0.7,0.2,1.6-0.5,2c-0.5,0.3-1.4,0.4-2,0.2c-0.8-0.2-1.1-1.1-0.8-1.9
		c0.3-1.1,0.8-2.1,1.2-3.1C63.6,70.5,63.7,70.5,63.8,70.4z"/>
	<path d="M54.4,73.1c0.6,1,1.2,1.9,1.8,2.9c0.4,0.7,0.2,1.6-0.5,2c-0.5,0.3-1.4,0.4-2,0.2c-0.8-0.2-1.1-1.1-0.8-1.9
		c0.3-1.1,0.8-2.1,1.2-3.1C54.1,73.2,54.3,73.1,54.4,73.1z"/>
</g>
</svg>
