<?xml version="1.0" encoding="utf-8"?>
<!-- Generator: Adobe Illustrator 21.0.2, SVG Export Plug-In . SVG Version: 6.00 Build 0)  -->
<svg version="1.1" id="Laag_1" xmlns="http://www.w3.org/2000/svg" xmlns:xlink="http://www.w3.org/1999/xlink" x="0px" y="0px"
	 viewBox="0 0 104.1 104.1" style="enable-background:new 0 0 104.1 104.1;" xml:space="preserve">
<style type="text/css">
	.st0{fill:#FFFFFF;}
</style>
<g>
	<g id="yfTnE6.tif_2_">
		<g>
			<path class="st0" d="M40.2,46.2c-0.2-0.1-0.3-0.2-0.4-0.3c-6.4-4.4-14.8-0.4-15.6,7.3c0,0.3-0.3,0.6-0.6,0.7
				c-6.7,2.9-10.2,9.2-9.1,16.4c1.1,6.8,7.4,12.2,14.3,12.2c13.7,0,27.4,0,41.1,0c3,0,6.1,0.2,9.1-0.1c6.5-0.6,11.7-6.1,12.2-12.4
				c0.5-7.3-4.4-13.2-10.6-14.6c-0.5-0.1-1-0.2-1.4-0.3c0.1-10.7-7.1-18-15-20.2C56.1,32.7,45.1,35.8,40.2,46.2z"/>
			<path d="M40.2,46.2c4.9-10.4,15.9-13.5,24-11.3c7.9,2.2,15,9.5,15,20.2c0.5,0.1,0.9,0.2,1.4,0.3c6.2,1.4,11.1,7.3,10.6,14.6
				c-0.5,6.3-5.7,11.8-12.2,12.4c-3,0.3-6.1,0.1-9.1,0.1c-13.7,0-27.4,0-41.1,0c-6.9,0-13.3-5.4-14.3-12.2
				C13.4,63.2,17,56.9,23.6,54c0.3-0.1,0.5-0.5,0.6-0.7c0.8-7.7,9.2-11.7,15.6-7.3C39.9,46.1,40,46.1,40.2,46.2z M76.8,57.1
				c0-1.5,0.1-2.9,0-4.3C75.8,41.2,64,33.6,53,37.4c-5.1,1.8-8.7,5.2-10.9,10.1c-0.3,0.7-0.7,1.5-1,2.3c-0.9-0.7-1.6-1.3-2.4-1.9
				c-2.4-1.8-5.1-2.1-7.8-0.9c-2.7,1.2-4.3,3.5-4.4,6.4c0,1.5-0.6,2.1-1.9,2.6c-5.7,2.1-9,8.1-7.8,14.2c1.1,5.8,6.3,10.2,12.3,10.2
				c15,0,30,0,45.1,0c1.7,0,3.5,0.1,5.2-0.2c5.3-0.7,9.5-5.4,9.7-10.7c0.2-5.7-3.4-10.6-8.8-11.9C79.1,57.4,78,57.3,76.8,57.1z"/>
			<path class="st0" d="M76.8,57.1c1.2,0.2,2.3,0.3,3.4,0.5c5.4,1.3,9,6.1,8.8,11.9c-0.2,5.3-4.4,9.9-9.7,10.7
				c-1.7,0.2-3.5,0.2-5.2,0.2c-15,0-30,0-45.1,0c-6,0-11.2-4.4-12.3-10.2c-1.1-6,2.1-12.1,7.8-14.2c1.3-0.5,1.9-1,1.9-2.6
				c0.1-3,1.7-5.2,4.4-6.4c2.7-1.2,5.4-0.9,7.8,0.9c0.8,0.6,1.5,1.2,2.4,1.9c0.4-0.8,0.7-1.6,1-2.3c2.2-4.9,5.8-8.3,10.9-10.1
				c11-3.8,22.8,3.8,23.8,15.4C77,54.2,76.8,55.7,76.8,57.1z"/>
		</g>
	</g>
	<g>
		<path d="M47.1,20.8c0.6,0.5,0.6,1.1,0.3,1.8c-0.8,1.7-1.5,3.4-2.2,5.1c-0.2,0.5-0.6,0.9-1.2,0.8c-0.5,0-1-0.3-1.1-0.9
			c-0.1-0.3,0-0.7,0.1-1c0.7-1.7,1.5-3.5,2.2-5.2c0.3-0.6,0.8-0.9,1.4-0.9C46.8,20.7,47,20.7,47.1,20.8z"/>
		<path d="M44.9,32.7c1.8,1.2,3.1,2.9,3.8,5.1c0.2,0.6,0,1.2-0.4,1.5c-0.5,0.3-0.9,0.3-1.4,0c-0.3-0.2-0.5-0.5-0.6-0.9
			c-1.9-5.3-8.5-6.6-12.2-2.5c-2,2.2-2.3,4.8-1.3,7.5c0.1,0.3,0.3,0.6,0.3,0.9c0.1,0.6-0.2,1.2-0.7,1.4c-0.5,0.2-1.1,0.1-1.4-0.5
			c-0.4-0.8-0.7-1.6-0.9-2.4c-0.9-3.8,0.7-7.8,3.9-10.1C37.3,30.6,41.6,30.5,44.9,32.7z"/>
		<path d="M35,27.7c-0.5,0.8-1.5,1-2.1,0.3c-0.1-0.2-0.2-0.3-0.3-0.5c-0.7-1.7-1.4-3.5-2.1-5.2c-0.4-1,0.1-1.8,1.1-1.8
			c0.6,0,0.9,0.3,1.1,0.8c0.7,1.8,1.5,3.6,2.2,5.5C35,27,35,27.3,35,27.7z"/>
		<path d="M50.6,35.8c-0.9-0.5-1-1.5-0.2-2.1c0.2-0.1,0.3-0.2,0.5-0.3c1.7-0.7,3.4-1.4,5.2-2c1-0.4,1.8,0.1,1.8,1
			c0,0.6-0.3,1-0.8,1.2c-1.8,0.7-3.6,1.4-5.4,2.1C51.3,35.8,51,35.8,50.6,35.8z"/>
		<path d="M26.8,43.3c0.9,0.5,1,1.6,0.2,2.1c-0.1,0.1-0.3,0.2-0.4,0.2c-1.8,0.7-3.5,1.4-5.3,2.1c-1,0.4-1.8-0.2-1.8-1.1
			c0-0.6,0.4-0.9,0.9-1.1c1.8-0.7,3.6-1.4,5.4-2.1C26.1,43.2,26.5,43.3,26.8,43.3z"/>
		<path d="M24.3,32c0.8,0.4,1.7,0.7,2.5,1.1c0.8,0.3,1.1,1,0.8,1.6c-0.3,0.6-1,0.9-1.8,0.5c-1.7-0.7-3.5-1.5-5.2-2.3
			c-0.7-0.3-1.1-1-0.8-1.7c0.3-0.6,1-0.8,1.7-0.5C22.5,31.2,23.4,31.6,24.3,32z"/>
	</g>
</g>
</svg>
