<?xml version="1.0" encoding="utf-8"?>
<!-- Generator: Adobe Illustrator 21.0.2, SVG Export Plug-In . SVG Version: 6.00 Build 0)  -->
<svg version="1.1" id="Laag_1" xmlns="http://www.w3.org/2000/svg" xmlns:xlink="http://www.w3.org/1999/xlink" x="0px" y="0px"
	 viewBox="0 0 104.1 104.1" style="enable-background:new 0 0 104.1 104.1;" xml:space="preserve">
<style type="text/css">
	.st0{fill:#FFFFFF;}
</style>
<g>
	<g id="yfTnE6.tif_3_">
		<g>
			<path class="st0" d="M40.2,30.7c-0.2-0.1-0.3-0.2-0.4-0.3C33.4,26.1,25,30,24.2,37.7c0,0.3-0.3,0.6-0.6,0.7
				c-6.7,2.9-10.2,9.2-9.1,16.4c1.1,6.8,7.4,12.2,14.3,12.2c13.7,0,27.4,0,41.1,0c3,0,6.1,0.2,9.1-0.1c6.5-0.6,11.7-6.1,12.2-12.4
				c0.5-7.3-4.4-13.2-10.6-14.6c-0.5-0.1-1-0.2-1.4-0.3c0.1-10.7-7.1-18-15-20.2C56.1,17.2,45.1,20.3,40.2,30.7z"/>
			<path d="M40.2,30.7c4.9-10.4,15.9-13.5,24-11.3c7.9,2.2,15,9.5,15,20.2c0.5,0.1,0.9,0.2,1.4,0.3c6.2,1.4,11.1,7.3,10.6,14.6
				C90.7,60.9,85.5,66.4,79,67c-3,0.3-6.1,0.1-9.1,0.1c-13.7,0-27.4,0-41.1,0c-6.9,0-13.3-5.4-14.3-12.2c-1.1-7.2,2.4-13.5,9.1-16.4
				c0.3-0.1,0.5-0.5,0.6-0.7c0.8-7.7,9.2-11.7,15.6-7.3C39.9,30.5,40,30.6,40.2,30.7z M76.8,41.6c0-1.5,0.1-2.9,0-4.3
				C75.8,25.7,64,18.1,53,21.9c-5.1,1.8-8.7,5.2-10.9,10.1c-0.3,0.7-0.7,1.5-1,2.3c-0.9-0.7-1.6-1.3-2.4-1.9
				c-2.4-1.8-5.1-2.1-7.8-0.9c-2.7,1.2-4.3,3.5-4.4,6.4c0,1.5-0.6,2.1-1.9,2.6c-5.7,2.1-9,8.1-7.8,14.2c1.1,5.8,6.3,10.2,12.3,10.2
				c15,0,30,0,45.1,0c1.7,0,3.5,0.1,5.2-0.2C84.6,64,88.8,59.3,89,54c0.2-5.7-3.4-10.6-8.8-11.9C79.1,41.9,78,41.8,76.8,41.6z"/>
			<path class="st0" d="M76.8,41.6c1.2,0.2,2.3,0.3,3.4,0.5c5.4,1.3,9,6.1,8.8,11.9c-0.2,5.3-4.4,9.9-9.7,10.7
				c-1.7,0.2-3.5,0.2-5.2,0.2c-15,0-30,0-45.1,0c-6,0-11.2-4.4-12.3-10.2c-1.1-6,2.1-12.1,7.8-14.2c1.3-0.5,1.9-1,1.9-2.6
				c0.1-3,1.7-5.2,4.4-6.4c2.7-1.2,5.4-0.9,7.8,0.9c0.8,0.6,1.5,1.2,2.4,1.9c0.4-0.8,0.7-1.6,1-2.3c2.2-4.9,5.8-8.3,10.9-10.1
				c11-3.8,22.8,3.8,23.8,15.4C77,38.7,76.8,40.1,76.8,41.6z"/>
		</g>
	</g>
	<g id="AMNH78.tif">
		<g>
			<path d="M71,80c0.4,0.5,0.7,0.8,1.1,1.3c-0.2,0.2-0.4,0.4-0.6,0.7c-0.5-0.4-0.9-0.7-1.2-1.1c-0.7,0.3-0.1,1.9-1.5,1.3
				c0.1-0.5,0.2-1,0.2-1.5c-0.5-0.5-1.8,0.9-1.9-0.8c0.5-0.2,1-0.3,1.6-0.6c-0.4-0.5-0.8-0.9-1.1-1.3c0.2-0.2,0.4-0.4,0.6-0.7
				c0.4,0.4,0.8,0.7,1.2,1c0.7-0.3,0.1-1.8,1.5-1.3c-0.1,0.5-0.2,1.1-0.3,1.7c0.6-0.1,1-0.2,1.6-0.3c0.1,0.3,0.2,0.5,0.3,0.8
				C72.1,79.6,71.6,79.8,71,80z"/>
			<path d="M30.9,78.4c0.5-0.5,0.8-1,1.2-1.4c0.1,0.6,0.2,1.1,0.4,1.8c0.3-0.1,0.8-0.2,1.4-0.3c0.1,0.2,0.2,0.5,0.3,0.8
				c-0.5,0.2-1,0.4-1.5,0.5c-0.2,0.7,1.7,1,0.3,2c-0.4-0.3-0.8-0.7-1.3-1.1c-0.2,0.6-0.4,1.1-0.6,1.6c-0.3-0.1-0.6-0.1-0.9-0.2
				c0.1-0.5,0.2-1,0.4-1.7c-0.4,0-0.7,0.1-1,0.1c-0.3,0-0.6-0.2-0.9-0.2c0.2-0.2,0.4-0.5,0.7-0.7c0.2-0.1,0.5-0.2,0.9-0.3
				c-0.4-0.5-0.8-0.9-1.2-1.4c0.2-0.2,0.4-0.4,0.7-0.6C30.2,77.8,30.6,78.1,30.9,78.4z"/>
			<path d="M43.3,75.6c-0.2,0.2-0.5,0.4-0.7,0.6c-0.4-0.4-0.8-0.7-1.3-1.1c-0.2,0.6-0.4,1-0.6,1.6c-1.5-0.1-0.4-1.2-0.7-1.9
				c-0.4,0.1-1,0.2-1.5,0.2c-0.3-0.8-0.3-0.8,1.2-1.4c0.2-0.7-1.7-1-0.3-2c0.4,0.3,0.8,0.7,1.3,1.2c0.2-0.6,0.4-1.1,0.6-1.7
				c0.3,0.1,0.6,0.2,0.9,0.3c-0.1,0.5-0.2,1-0.3,1.4c0.7,0.2,1.2,0.3,1.8,0.5c-0.4,0.3-0.9,0.7-1.4,1.1
				C42.5,74.7,42.8,75.1,43.3,75.6z"/>
			<path d="M59.1,83.3c-0.4-0.4-0.7-0.8-1.1-1.2c0.5-0.7,0.5-0.7,1.9,0.3c0.2-0.5,0.4-1.1,0.6-1.6c1.6,0.2,0.3,1.2,0.7,1.9
				c0.3-0.1,0.6-0.2,0.9-0.2c0.3,0,0.5,0.2,0.7,0.3c-0.2,0.2-0.3,0.5-0.5,0.6c-0.3,0.2-0.6,0.2-1,0.4c0.4,0.5,0.7,0.9,1.2,1.4
				c-0.2,0.2-0.4,0.4-0.6,0.6c-0.5-0.4-0.9-0.7-1.3-1.2c-0.1,0.3-0.2,0.6-0.3,0.8c-0.2,0.3-0.5,0.5-0.8,0.8c-0.1-0.3-0.2-0.6-0.2-1
				c0-0.2,0.1-0.5,0.1-0.9c-0.6,0.1-1.1,0.2-1.7,0.3C57.5,84,57.5,84,59.1,83.3z"/>
			<path d="M59.6,71.4c0.7,0.9,1.5,1.7,2.2,2.6c0.5,0.7,0.4,1.5-0.2,2c-0.5,0.4-1.3,0.6-1.9,0.6c-0.8-0.1-1.3-0.8-1.2-1.6
				c0.2-1.1,0.5-2.3,0.8-3.4C59.4,71.4,59.5,71.4,59.6,71.4z"/>
			<path d="M40.1,80.2c0.9,1.1,1.7,1.9,2.4,2.9c0.5,0.7,0.4,1.6-0.2,2c-0.5,0.4-1.3,0.6-1.9,0.5c-0.8-0.1-1.3-0.9-1.1-1.7
				C39.4,82.7,39.8,81.6,40.1,80.2z"/>
			<path d="M50,76.3c0.7,0.9,1.5,1.7,2.2,2.6c0.5,0.7,0.4,1.6-0.2,2c-0.5,0.4-1.3,0.6-1.9,0.5c-0.8-0.1-1.2-0.9-1.1-1.7
				c0.2-1.1,0.5-2.2,0.8-3.3C49.7,76.4,49.8,76.3,50,76.3z"/>
		</g>
	</g>
</g>
</svg>
